<svg width="166" height="166" viewBox="0 0 166 166" fill="none" xmlns="http://www.w3.org/2000/svg">
    <!-- Gradient background -->
    <defs>
        <linearGradient id="bgGradient" x1="0" y1="0" x2="166" y2="166">
            <stop offset="0%" stop-color="#25D366"/>
            <stop offset="100%" stop-color="#128C7E"/>
        </linearGradient>
        <linearGradient id="bubbleGradient" x1="0" y1="0" x2="100" y2="100">
            <stop offset="0%" stop-color="#ffffff"/>
            <stop offset="100%" stop-color="#f0f0f0"/>
        </linearGradient>
    </defs>

    <!-- Background -->
    <rect width="166" height="166" rx="32" fill="url(#bgGradient)"/>

    <!-- Main message bubble -->
    <path d="M45 55C45 48.3726 50.3726 43 57 43H109C115.627 43 121 48.3726 121 55V95C121 101.627 115.627 107 109 107H95L83 120L71 107H57C50.3726 107 45 101.627 45 95V55Z" fill="url(#bubbleGradient)" stroke="white" stroke-width="2"/>

    <!-- Message lines with animation feel -->
    <rect x="55" y="60" width="56" height="6" rx="3" fill="#25D366" opacity="0.9"/>
    <rect x="55" y="72" width="46" height="6" rx="3" fill="#25D366" opacity="0.7"/>
    <rect x="55" y="84" width="36" height="6" rx="3" fill="#25D366" opacity="0.5"/>

    <!-- Send icon -->
    <path d="M100 91L111 85L100 79V85L105 87.5L100 91Z" fill="#128C7E"/>

    <!-- Connection lines -->
    <path d="M116 65L122 45" stroke="white" stroke-width="2" stroke-opacity="0.3" stroke-dasharray="4 4"/>
    <path d="M118 82L128 78" stroke="white" stroke-width="2" stroke-opacity="0.3" stroke-dasharray="4 4"/>
    <path d="M112 100L123 105" stroke="white" stroke-width="2" stroke-opacity="0.3" stroke-dasharray="4 4"/>
</svg>
